<!--?xml version="1.0" standalone="no"?-->
              <svg id="sw-js-blob-svg" viewBox="0 0 100 100" xmlns="http://www.w3.org/2000/svg" version="1.1">
                    <defs> 
                        <linearGradient id="sw-gradient" x1="0" x2="1" y1="1" y2="0">
                            <stop id="stop1" stop-color="rgba(126, 34, 206, 1)" offset="0%"></stop>
                            <stop id="stop2" stop-color="rgba(126, 34, 206, 1)" offset="100%"></stop>
                        </linearGradient>
                    </defs>
                <path fill="url(#sw-gradient)" d="M26.3,-32.1C33.7,-30.9,39.1,-22.7,41,-14C43,-5.3,41.5,3.9,38.5,12.3C35.5,20.8,31,28.6,24.3,30.7C17.7,32.8,8.8,29.1,1.7,26.7C-5.4,24.4,-10.7,23.3,-15.2,20.5C-19.7,17.7,-23.4,13.2,-25.4,8C-27.4,2.8,-27.9,-3.2,-25.9,-8.1C-23.9,-13.1,-19.5,-16.9,-14.8,-19C-10,-21,-5,-21.3,2.2,-24.4C9.5,-27.4,18.9,-33.2,26.3,-32.1Z" width="100%" height="100%" transform="translate(50 50)" stroke-width="0" style="transition: all 0.3s ease 0s;" stroke="url(#sw-gradient)"></path>
              </svg>