<svg xmlns="http://www.w3.org/2000/svg" width="256" height="256" viewBox="0 0 100 100"><rect width="100" height="100" rx="20" fill="#7e22ce"></rect><path fill="#fff" d="M48.58 15.09Q53.52 15.09 56.46 16.04Q59.41 16.99 62.45 18.79L62.45 18.79Q63.49 19.36 64.30 19.74Q65.10 20.12 65.67 20.12L65.67 20.12Q66.53 20.12 67.00 19.13Q67.48 18.13 67.77 15.94L67.77 15.94L69.95 15.94Q69.47 22.31 69.47 37.60L69.47 37.60L67.29 37.60Q66.91 32.47 64.96 27.82Q63.02 23.16 59.45 20.26Q55.89 17.37 51.14 17.37L51.14 17.37Q46.48 17.37 43.59 19.98Q40.69 22.59 40.69 27.06L40.69 27.06Q40.69 30.38 42.11 32.85Q43.54 35.32 46.11 37.36Q48.67 39.41 53.99 42.92L53.99 42.92L57.03 45.01Q62.63 48.72 65.87 51.47Q69.09 54.23 71.14 57.88Q73.18 61.54 73.18 66.39L73.18 66.39Q73.18 72.47 70.05 76.60Q66.91 80.73 61.54 82.82Q56.17 84.91 49.62 84.91L49.62 84.91Q44.30 84.91 40.78 83.96Q37.27 83.01 34.33 81.40L34.33 81.40Q32.23 80.07 31.09 80.07L31.09 80.07Q30.24 80.07 29.77 81.06Q29.29 82.06 29.00 84.25L29.00 84.25L26.82 84.25Q27.20 78.26 27.20 58.60L27.20 58.60L29.38 58.60Q30.05 69.24 34.13 75.84Q38.22 82.44 46.67 82.44L46.67 82.44Q51.80 82.44 55.13 79.69Q58.45 76.93 58.45 71.80L58.45 71.80Q58.45 66.48 55.03 62.68Q51.61 58.88 44.20 54.13L44.20 54.13Q38.50 50.43 35.09 47.67Q31.66 44.92 29.48 41.16Q27.29 37.41 27.29 32.47L27.29 32.47Q27.29 26.77 30.19 22.83Q33.09 18.89 37.94 16.99Q42.78 15.09 48.58 15.09L48.58 15.09Z"></path></svg>